<svg version="1.1" id="Layer_1" xmlns="http://www.w3.org/2000/svg" xmlns:xlink="http://www.w3.org/1999/xlink" x="0px" y="0px"
	 width="100%" viewBox="0 0 312 156" enable-background="new 0 0 312 156" xml:space="preserve">
<path fill="#000101" opacity="1.000000" stroke="none" 
	d="
M214.000000,157.000000 
	C142.666672,157.000000 71.833351,157.000000 1.000019,157.000000 
	C1.000013,105.000015 1.000013,53.000031 1.000006,1.000033 
	C104.999969,1.000022 208.999939,1.000022 312.999939,1.000011 
	C312.999939,52.999966 312.999939,104.999931 312.999969,156.999939 
	C280.166656,157.000000 247.333328,157.000000 214.000000,157.000000 
M131.279526,102.370102 
	C131.494583,102.648827 131.777130,102.806999 133.025940,102.986176 
	C135.330688,103.039902 137.650131,103.287262 139.937637,103.113731 
	C149.676086,102.374954 159.132217,94.071404 157.756821,81.294479 
	C158.725769,73.656189 154.604126,68.602448 148.733231,64.951653 
	C142.099106,60.826252 130.494247,61.669678 125.214523,66.384651 
	C114.668427,75.802704 117.066566,86.113556 125.157318,98.556244 
	C127.138954,99.676826 129.120590,100.797409 131.004272,101.995964 
	C131.004272,101.995964 131.094604,101.909225 131.279526,102.370102 
M86.155968,59.861443 
	C86.115776,56.977669 86.835297,53.352245 81.185242,55.420525 
	C81.185242,59.553375 81.185242,63.746128 81.185242,68.145081 
	C72.059959,64.338661 67.240173,65.103745 63.501053,70.613930 
	C59.379208,76.688126 60.055553,87.578285 64.860611,92.504959 
	C69.540619,97.303421 73.429153,97.298576 80.786079,92.753716 
	C82.270470,93.585007 83.526863,94.288612 84.783249,94.992218 
	C85.242867,93.715515 86.087448,92.442917 86.101105,91.161461 
	C86.209023,81.033852 86.158554,70.904564 86.155968,59.861443 
M237.080460,82.127823 
	C242.509125,82.127823 247.937790,82.127823 253.484314,82.127823 
	C254.664673,76.122566 254.090347,70.708298 249.042938,68.037270 
	C245.805740,66.324181 240.852036,65.766579 237.426529,66.928307 
	C230.091843,69.415771 227.323654,80.526924 231.177765,88.479309 
	C234.643631,95.630600 243.295563,98.282776 250.671875,94.233185 
	C251.845413,93.588913 252.414597,91.843803 253.263184,90.607635 
	C249.541641,90.257835 246.929321,91.536346 244.482346,91.273773 
	C241.794022,90.985306 238.860092,89.743256 236.818237,87.998108 
	C235.747971,87.083389 236.358521,84.202072 237.080460,82.127823 
M198.053391,81.493484 
	C198.055756,84.823982 197.852005,88.174065 198.165558,91.475006 
	C198.285049,92.732819 199.591446,93.877884 200.356918,95.074326 
	C201.232315,93.827003 202.756821,92.634537 202.867676,91.322609 
	C203.287003,86.360542 202.852005,81.308136 203.493393,76.388176 
	C204.110977,71.650970 207.289810,69.741997 212.101898,70.081505 
	C216.816833,70.414162 217.607346,73.782982 217.724503,77.473038 
	C217.877670,82.297768 217.802567,87.130272 217.795242,91.959389 
	C217.790482,95.087196 219.262161,95.678947 221.993271,94.476700 
	C222.099976,93.616341 222.284882,92.800110 222.288986,91.982971 
	C222.315750,86.654610 222.445831,81.321350 222.269623,75.998703 
	C222.018417,68.410805 218.346954,65.092743 210.760925,65.881691 
	C208.255829,66.142227 205.874268,67.590546 203.522934,68.463585 
	C202.347641,67.795181 200.956009,67.003754 199.564392,66.212318 
	C199.065384,67.811432 198.254211,69.387482 198.133987,71.014580 
	C197.901474,74.161705 198.058334,77.337593 198.053391,81.493484 
M176.904068,65.817070 
	C174.681412,66.788216 172.458771,67.759354 170.732361,68.513672 
	C169.209915,67.653435 167.927322,66.928726 166.644730,66.204010 
	C166.099167,67.605995 165.117096,68.997208 165.082184,70.411804 
	C164.913803,77.235313 164.877960,84.069061 165.097580,90.889442 
	C165.142868,92.296196 166.477661,93.661430 167.218124,95.045799 
	C168.138779,93.669640 169.729507,92.351822 169.855362,90.906456 
	C170.244110,86.441605 169.767075,81.898178 170.201447,77.441315 
	C170.710983,72.213188 174.000793,69.790443 179.047699,70.093964 
	C184.183197,70.402817 184.546234,74.252235 184.723251,77.955017 
	C184.945679,82.607178 184.647324,87.284874 184.891586,91.934853 
	C184.947632,93.001900 186.300125,94.000839 187.055984,95.031120 
	C187.821899,94.014679 189.198746,93.027855 189.249680,91.976761 
	C189.491226,86.992653 189.519043,81.985916 189.346985,76.996758 
	C189.046844,68.293541 186.453369,65.877663 176.904068,65.817070 
M22.160166,80.463806 
	C23.721956,84.482124 25.116255,88.579224 26.946865,92.471100 
	C27.501270,93.649773 29.252008,94.924477 30.474953,94.944862 
	C31.700418,94.965294 33.619335,93.745598 34.084171,92.601967 
	C37.563740,84.041199 40.758240,75.364555 44.134892,66.479813 
	C42.064011,66.479813 40.534351,66.479813 38.982700,66.479813 
	C36.306896,73.781425 33.711964,80.862373 31.117027,87.943321 
	C27.636242,81.613434 25.255495,75.321609 23.101002,68.953255 
	C22.005756,65.715881 20.265013,64.928429 16.959133,66.491272 
	C18.683689,71.071297 20.311623,75.394699 22.160166,80.463806 
M275.958649,95.766716 
	C279.017151,95.211540 280.850311,93.888351 279.293671,90.021706 
	C277.643829,90.421989 276.096741,90.884705 274.517151,91.163605 
	C270.393097,91.891769 267.307983,90.344543 265.629242,86.524200 
	C261.467590,77.053535 266.494598,69.984566 276.621490,70.728905 
	C277.680206,70.806717 278.836884,69.551430 279.948120,68.914650 
	C279.228546,67.979309 278.627838,66.371864 277.769653,66.220062 
	C272.976074,65.372131 268.186066,65.119644 264.138367,68.723625 
	C259.826202,72.563042 258.270752,81.938309 260.958679,88.275307 
	C263.290649,93.773094 268.064362,96.357544 275.958649,95.766716 
M111.101738,71.089973 
	C112.243958,70.235512 113.386177,69.381058 114.528397,68.526596 
	C114.285927,67.764626 114.043465,67.002647 113.800995,66.240677 
	C110.143532,66.240677 106.314964,65.541473 102.864159,66.385948 
	C95.637634,68.154419 92.721466,74.699585 93.948448,84.639442 
	C94.959824,92.832703 102.957130,97.943832 110.844887,95.559097 
	C113.972672,94.613457 114.651596,92.934814 113.071754,89.673111 
	C108.332146,92.072449 103.760735,93.069374 100.306320,87.931190 
	C98.162270,84.742081 98.135704,76.617043 100.387466,73.522095 
	C102.911301,70.053200 106.399971,69.752533 111.101738,71.089973 
M285.093750,70.097313 
	C285.774902,71.350845 286.965912,72.573196 287.044830,73.863556 
	C287.318970,78.346397 286.953888,82.872726 287.305206,87.345345 
	C287.762238,93.164101 291.957123,96.956680 296.687653,95.978531 
	C298.031586,95.700615 299.138031,94.274063 299.478119,94.022270 
	C296.473816,91.406570 292.828583,89.781693 292.498566,87.644821 
	C291.630676,82.025475 292.205231,76.183357 292.205231,70.092484 
	C294.725800,70.092484 296.565338,70.257156 298.348236,70.011177 
	C299.058258,69.913223 299.642975,68.906998 300.284729,68.314262 
	C299.768494,67.764626 299.209961,66.704872 298.742493,66.743614 
	C293.611420,67.168900 291.449585,64.375420 291.355225,58.854347 
	C288.300507,62.721836 285.878113,65.769295 283.520355,68.866005 
	C283.448151,68.960831 284.048615,69.567818 285.093750,70.097313 
M53.702805,83.453812 
	C53.707142,78.800270 53.853653,74.139107 53.604557,69.499168 
	C53.549988,68.482697 52.086174,67.541878 51.271358,66.566223 
	C50.460808,67.367828 48.962032,68.155678 48.945702,68.973145 
	C48.774185,77.559807 48.839706,86.151215 48.839706,94.552925 
	C52.586151,95.773743 53.789089,94.522964 53.664890,91.409241 
	C53.572254,89.086914 53.677444,86.756683 53.702805,83.453812 
M52.727264,56.107697 
	C51.405479,56.472370 49.497990,56.452278 48.932175,57.313572 
	C48.402027,58.120571 49.073769,59.971001 49.662178,61.137489 
	C49.907127,61.623085 52.046959,61.746140 52.072086,61.661606 
	C52.560238,60.019234 52.862778,58.321697 52.727264,56.107697 
z"/>
<path fill="#026CB4" opacity="1.000000" stroke="none" 
	d="
M86.156372,60.318615 
	C86.158554,70.904564 86.209023,81.033852 86.101105,91.161461 
	C86.087448,92.442917 85.242867,93.715515 84.783249,94.992218 
	C83.526863,94.288612 82.270470,93.585007 80.786079,92.753716 
	C73.429153,97.298576 69.540619,97.303421 64.860611,92.504959 
	C60.055553,87.578285 59.379208,76.688126 63.501053,70.613930 
	C67.240173,65.103745 72.059959,64.338661 81.185242,68.145081 
	C81.185242,63.746128 81.185242,59.553375 81.185242,55.420525 
	C86.835297,53.352245 86.115776,56.977669 86.156372,60.318615 
M74.369934,70.081253 
	C69.955299,69.685776 67.594574,72.061256 66.415039,76.001740 
	C64.756348,81.542984 65.866859,87.984077 69.583504,90.092873 
	C71.491035,91.175194 74.514381,91.368416 76.667107,90.729355 
	C82.080406,89.122345 81.510750,84.183907 81.395866,79.949745 
	C81.277786,75.597137 80.903793,71.070564 74.369934,70.081253 
z"/>
<path fill="#036EB6" opacity="1.000000" stroke="none" 
	d="
M236.645233,82.168350 
	C236.358521,84.202072 235.747971,87.083389 236.818237,87.998108 
	C238.860092,89.743256 241.794022,90.985306 244.482346,91.273773 
	C246.929321,91.536346 249.541641,90.257835 253.263184,90.607635 
	C252.414597,91.843803 251.845413,93.588913 250.671875,94.233185 
	C243.295563,98.282776 234.643631,95.630600 231.177765,88.479309 
	C227.323654,80.526924 230.091843,69.415771 237.426529,66.928307 
	C240.852036,65.766579 245.805740,66.324181 249.042938,68.037270 
	C254.090347,70.708298 254.664673,76.122566 253.484314,82.127823 
	C247.937790,82.127823 242.509125,82.127823 236.645233,82.168350 
M235.525925,77.370171 
	C239.875473,77.370171 244.225037,77.370171 248.778931,77.370171 
	C248.878204,73.407471 247.668640,70.669014 243.658875,70.064140 
	C238.917221,69.348846 236.534561,71.265968 235.525925,77.370171 
z"/>
<path fill="#0772B5" opacity="1.000000" stroke="none" 
	d="
M124.937683,97.906555 
	C117.066566,86.113556 114.668427,75.802704 125.214523,66.384651 
	C130.494247,61.669678 142.099106,60.826252 148.733231,64.951653 
	C154.604126,68.602448 158.725769,73.656189 157.299210,81.451057 
	C156.230820,81.412010 155.620041,81.216377 154.722794,80.801445 
	C153.289291,78.000786 152.142258,75.419426 150.856079,72.518120 
	C149.367065,71.347687 148.017197,70.497200 146.412292,69.448715 
	C141.563065,64.812378 135.657730,64.651932 129.907730,68.937263 
	C129.075333,69.374954 128.533691,69.692505 127.953995,70.259201 
	C127.930565,70.675735 127.945198,70.843124 127.979790,70.995514 
	C127.999748,70.980522 128.033997,70.944199 127.756577,71.009323 
	C127.301071,71.393555 127.122986,71.712662 126.959335,72.009308 
	C126.973778,71.986855 126.990631,71.936180 126.656540,72.074203 
	C125.216202,74.734108 123.603470,77.161858 123.113510,79.798264 
	C122.208878,84.665932 124.975769,89.056473 128.995972,90.421448 
	C130.213806,92.736343 131.373001,94.738075 132.365952,96.865280 
	C131.694382,97.353783 131.189041,97.716827 130.346512,98.015900 
	C128.318771,97.936806 126.628227,97.921684 124.937683,97.906555 
z"/>
<path fill="#026CB3" opacity="1.000000" stroke="none" 
	d="
M198.053589,80.997528 
	C198.058334,77.337593 197.901474,74.161705 198.133987,71.014580 
	C198.254211,69.387482 199.065384,67.811432 199.564392,66.212318 
	C200.956009,67.003754 202.347641,67.795181 203.522934,68.463585 
	C205.874268,67.590546 208.255829,66.142227 210.760925,65.881691 
	C218.346954,65.092743 222.018417,68.410805 222.269623,75.998703 
	C222.445831,81.321350 222.315750,86.654610 222.288986,91.982971 
	C222.284882,92.800110 222.099976,93.616341 221.993271,94.476700 
	C219.262161,95.678947 217.790482,95.087196 217.795242,91.959389 
	C217.802567,87.130272 217.877670,82.297768 217.724503,77.473038 
	C217.607346,73.782982 216.816833,70.414162 212.101898,70.081505 
	C207.289810,69.741997 204.110977,71.650970 203.493393,76.388176 
	C202.852005,81.308136 203.287003,86.360542 202.867676,91.322609 
	C202.756821,92.634537 201.232315,93.827003 200.356918,95.074326 
	C199.591446,93.877884 198.285049,92.732819 198.165558,91.475006 
	C197.852005,88.174065 198.055756,84.823982 198.053589,80.997528 
z"/>
<path fill="#036DB4" opacity="1.000000" stroke="none" 
	d="
M177.326141,65.798904 
	C186.453369,65.877663 189.046844,68.293541 189.346985,76.996758 
	C189.519043,81.985916 189.491226,86.992653 189.249680,91.976761 
	C189.198746,93.027855 187.821899,94.014679 187.055984,95.031120 
	C186.300125,94.000839 184.947632,93.001900 184.891586,91.934853 
	C184.647324,87.284874 184.945679,82.607178 184.723251,77.955017 
	C184.546234,74.252235 184.183197,70.402817 179.047699,70.093964 
	C174.000793,69.790443 170.710983,72.213188 170.201447,77.441315 
	C169.767075,81.898178 170.244110,86.441605 169.855362,90.906456 
	C169.729507,92.351822 168.138779,93.669640 167.218124,95.045792 
	C166.477661,93.661430 165.142868,92.296196 165.097580,90.889442 
	C164.877960,84.069061 164.913803,77.235313 165.082184,70.411804 
	C165.117096,68.997208 166.099167,67.605995 166.644730,66.204010 
	C167.927322,66.928726 169.209915,67.653435 170.732361,68.513672 
	C172.458771,67.759354 174.681412,66.788216 177.326141,65.798904 
z"/>
<path fill="#0269AE" opacity="1.000000" stroke="none" 
	d="
M22.049860,80.090958 
	C20.311623,75.394699 18.683689,71.071297 16.959133,66.491272 
	C20.265013,64.928429 22.005756,65.715881 23.101002,68.953255 
	C25.255495,75.321609 27.636242,81.613434 31.117027,87.943321 
	C33.711964,80.862373 36.306896,73.781425 38.982700,66.479813 
	C40.534351,66.479813 42.064011,66.479813 44.134892,66.479813 
	C40.758240,75.364555 37.563740,84.041199 34.084171,92.601967 
	C33.619335,93.745598 31.700418,94.965294 30.474953,94.944862 
	C29.252008,94.924477 27.501270,93.649773 26.946865,92.471100 
	C25.116255,88.579224 23.721956,84.482124 22.049860,80.090958 
z"/>
<path fill="#036CB2" opacity="1.000000" stroke="none" 
	d="
M275.541199,95.855453 
	C268.064362,96.357544 263.290649,93.773094 260.958679,88.275307 
	C258.270752,81.938309 259.826202,72.563042 264.138367,68.723625 
	C268.186066,65.119644 272.976074,65.372131 277.769653,66.220062 
	C278.627838,66.371864 279.228546,67.979309 279.948120,68.914650 
	C278.836884,69.551430 277.680206,70.806717 276.621490,70.728905 
	C266.494598,69.984566 261.467590,77.053535 265.629242,86.524200 
	C267.307983,90.344543 270.393097,91.891769 274.517151,91.163605 
	C276.096741,90.884705 277.643829,90.421989 279.293671,90.021706 
	C280.850311,93.888351 279.017151,95.211540 275.541199,95.855453 
z"/>
<path fill="#036CB2" opacity="1.000000" stroke="none" 
	d="
M110.658119,71.026703 
	C106.399971,69.752533 102.911301,70.053200 100.387466,73.522095 
	C98.135704,76.617043 98.162270,84.742081 100.306320,87.931190 
	C103.760735,93.069374 108.332146,92.072449 113.071754,89.673111 
	C114.651596,92.934814 113.972672,94.613457 110.844887,95.559097 
	C102.957130,97.943832 94.959824,92.832703 93.948448,84.639442 
	C92.721466,74.699585 95.637634,68.154419 102.864159,66.385948 
	C106.314964,65.541473 110.143532,66.240677 113.800995,66.240677 
	C114.043465,67.002647 114.285927,67.764626 114.528397,68.526596 
	C113.386177,69.381058 112.243958,70.235512 110.658119,71.026703 
z"/>
<path fill="#026BB1" opacity="1.000000" stroke="none" 
	d="
M284.714600,70.016670 
	C284.048615,69.567818 283.448151,68.960831 283.520355,68.866005 
	C285.878113,65.769295 288.300507,62.721836 291.355225,58.854347 
	C291.449585,64.375420 293.611420,67.168900 298.742493,66.743614 
	C299.209961,66.704872 299.768494,67.764626 300.284729,68.314255 
	C299.642975,68.906998 299.058258,69.913223 298.348236,70.011177 
	C296.565338,70.257156 294.725800,70.092484 292.205231,70.092484 
	C292.205231,76.183357 291.630676,82.025475 292.498566,87.644821 
	C292.828583,89.781693 296.473816,91.406570 299.478119,94.022270 
	C299.138031,94.274063 298.031586,95.700615 296.687653,95.978531 
	C291.957123,96.956680 287.762238,93.164101 287.305206,87.345345 
	C286.953888,82.872726 287.318970,78.346397 287.044830,73.863556 
	C286.965912,72.573196 285.774902,71.350845 284.714600,70.016670 
z"/>
<path fill="#0266AA" opacity="1.000000" stroke="none" 
	d="
M53.698669,83.941895 
	C53.677444,86.756683 53.572254,89.086914 53.664890,91.409241 
	C53.789089,94.522964 52.586151,95.773743 48.839706,94.552925 
	C48.839706,86.151215 48.774185,77.559807 48.945702,68.973145 
	C48.962032,68.155678 50.460808,67.367828 51.271355,66.566223 
	C52.086174,67.541878 53.549988,68.482697 53.604557,69.499168 
	C53.853653,74.139107 53.707142,78.800270 53.698669,83.941895 
z"/>
<path fill="#0A92CC" opacity="1.000000" stroke="none" 
	d="
M155.009262,81.020752 
	C155.620041,81.216377 156.230820,81.412010 157.070770,81.684898 
	C159.132217,94.071404 149.676086,102.374954 139.937637,103.113731 
	C137.650131,103.287262 135.330688,103.039902 132.471359,102.694199 
	C131.711441,102.123283 131.437393,101.958954 131.094604,101.909225 
	C131.094604,101.909225 131.004272,101.995964 131.123474,101.614197 
	C134.126007,100.818100 137.024139,100.479362 139.878998,99.919777 
	C140.393097,99.819008 140.728989,98.809044 141.105377,98.154099 
	C141.063568,98.089363 141.000092,97.947273 141.060303,97.647369 
	C141.088760,95.982193 141.057007,94.616920 141.250916,93.104172 
	C141.829941,92.916428 142.183289,92.876160 143.004150,92.863274 
	C145.331528,92.919006 147.191376,92.947350 149.420105,93.006905 
	C155.039169,90.557106 153.401291,85.083931 155.009262,81.020752 
M145.824463,97.376526 
	C145.826675,97.121986 145.828873,96.867447 145.831070,96.612900 
	C145.570053,96.685829 145.309036,96.758759 145.048019,96.831696 
	C145.207947,97.038025 145.367859,97.244354 145.824463,97.376526 
z"/>
<path fill="#1D4A60" opacity="1.000000" stroke="none" 
	d="
M141.147171,98.218842 
	C140.728989,98.809044 140.393097,99.819008 139.878998,99.919777 
	C137.024139,100.479362 134.126007,100.818100 131.172455,101.575211 
	C129.120590,100.797409 127.138954,99.676826 125.047501,98.231400 
	C126.628227,97.921684 128.318771,97.936806 130.410065,98.042038 
	C130.810806,98.132133 130.919159,98.052185 131.245880,98.310844 
	C134.764114,98.452621 137.955643,98.335732 141.147171,98.218842 
z"/>
<path fill="#0562A0" opacity="1.000000" stroke="none" 
	d="
M52.965336,56.371590 
	C52.862778,58.321697 52.560238,60.019234 52.072086,61.661606 
	C52.046959,61.746140 49.907127,61.623085 49.662178,61.137489 
	C49.073769,59.971001 48.402027,58.120571 48.932175,57.313572 
	C49.497990,56.452278 51.405479,56.472370 52.965336,56.371590 
z"/>
<path fill="#1D4A60" opacity="1.000000" stroke="none" 
	d="
M131.187073,102.139664 
	C131.437393,101.958954 131.711441,102.123283 132.021973,102.623428 
	C131.777130,102.806999 131.494583,102.648827 131.187073,102.139664 
z"/>
<path fill="#010407" opacity="1.000000" stroke="none" 
	d="
M74.772728,70.099182 
	C80.903793,71.070564 81.277786,75.597137 81.395866,79.949745 
	C81.510750,84.183907 82.080406,89.122345 76.667107,90.729355 
	C74.514381,91.368416 71.491035,91.175194 69.583504,90.092873 
	C65.866859,87.984077 64.756348,81.542984 66.415039,76.001740 
	C67.594574,72.061256 69.955299,69.685776 74.772728,70.099182 
z"/>
<path fill="#010B12" opacity="1.000000" stroke="none" 
	d="
M235.329681,77.008926 
	C236.534561,71.265968 238.917221,69.348846 243.658875,70.064140 
	C247.668640,70.669014 248.878204,73.407471 248.778931,77.370171 
	C244.225037,77.370171 239.875473,77.370171 235.329681,77.008926 
z"/>
<path fill="#010508" opacity="1.000000" stroke="none" 
	d="
M142.536636,92.835892 
	C142.183289,92.876160 141.829941,92.916428 140.887405,93.145988 
	C137.709549,94.470123 135.120865,95.604965 132.532196,96.739807 
	C131.373001,94.738075 130.213806,92.736343 128.965805,90.044388 
	C127.932495,85.972130 126.987991,82.590096 126.352280,79.057678 
	C128.802124,76.652122 130.943176,74.396942 133.397797,72.133492 
	C134.458633,71.775002 135.205887,71.424782 136.376892,71.153549 
	C137.964691,71.253021 139.128738,71.273514 140.366440,71.257790 
	C140.440079,71.221581 140.367737,71.074265 140.591705,71.369476 
	C141.517548,71.880402 142.219421,72.096107 143.047913,72.497147 
	C143.413193,72.884705 143.688919,72.988472 144.178864,73.246338 
	C144.904266,73.756371 145.452469,74.013840 145.990356,74.131927 
	C145.980011,73.992531 145.701233,74.013245 145.754395,74.314857 
	C146.210419,75.058228 146.613312,75.499977 147.127472,76.294876 
	C147.840698,79.103798 148.442627,81.559578 148.857559,84.313324 
	C146.625916,87.352837 144.581268,90.094360 142.536636,92.835892 
z"/>
<path fill="#041C2B" opacity="1.000000" stroke="none" 
	d="
M126.043488,79.208069 
	C126.987991,82.590096 127.932495,85.972130 128.907166,89.731216 
	C124.975769,89.056473 122.208878,84.665932 123.113510,79.798264 
	C123.603470,77.161858 125.216202,74.734108 126.927315,72.373802 
	C127.035950,74.759605 126.539719,76.983833 126.043488,79.208069 
z"/>
<path fill="#B4D3E8" opacity="1.000000" stroke="none" 
	d="
M130.198502,68.817131 
	C135.657730,64.651932 141.563065,64.812378 146.208038,69.454849 
	C146.258804,69.658966 145.958572,69.932739 145.556000,69.821152 
	C141.052094,69.635056 136.950745,69.560539 132.580215,69.440216 
	C131.606842,69.201988 130.902679,69.009560 130.198502,68.817131 
z"/>
<path fill="#031B28" opacity="1.000000" stroke="none" 
	d="
M154.722794,80.801453 
	C153.401291,85.083931 155.039169,90.557106 149.493256,92.660233 
	C150.167801,89.514160 151.138077,86.745956 152.227066,83.550980 
	C152.080688,81.381989 151.815598,79.639786 151.535019,77.711899 
	C151.415909,77.288589 151.249039,77.110130 150.960602,76.672302 
	C150.274734,75.243271 149.647202,74.132751 149.346710,72.971039 
	C150.114258,72.892586 150.554733,72.865326 150.995224,72.838066 
	C152.142258,75.419426 153.289291,78.000786 154.722794,80.801453 
z"/>
<path fill="#0F74B3" opacity="1.000000" stroke="none" 
	d="
M129.907730,68.937263 
	C130.902679,69.009560 131.606842,69.201988 132.617462,69.883148 
	C132.977325,70.961845 133.030777,71.551804 133.084213,72.141762 
	C130.943176,74.396942 128.802124,76.652122 126.352280,79.057678 
	C126.539719,76.983833 127.035950,74.759605 127.261406,72.235779 
	C126.990631,71.936180 126.973778,71.986855 127.315208,72.088394 
	C127.782425,71.774681 127.908211,71.359444 128.033997,70.944199 
	C128.033997,70.944199 127.999748,70.980522 128.166473,71.240448 
	C128.619522,71.185120 128.905838,70.869850 129.192169,70.554581 
	C128.792130,70.373070 128.392105,70.191566 127.992065,70.010056 
	C128.533691,69.692505 129.075333,69.374954 129.907730,68.937263 
z"/>
<path fill="#0989C5" opacity="1.000000" stroke="none" 
	d="
M132.365952,96.865273 
	C135.120865,95.604965 137.709549,94.470123 140.661728,93.293457 
	C141.057007,94.616920 141.088760,95.982193 140.603607,97.655350 
	C137.030853,97.992874 133.975006,98.022530 130.919159,98.052185 
	C130.919159,98.052185 130.810806,98.132133 130.747253,98.106003 
	C131.189041,97.716827 131.694382,97.353783 132.365952,96.865273 
z"/>
<path fill="#0F74B3" opacity="1.000000" stroke="none" 
	d="
M150.856079,72.518120 
	C150.554733,72.865326 150.114258,72.892586 149.092789,72.780045 
	C147.660736,71.737747 146.809647,70.835243 145.958572,69.932739 
	C145.958572,69.932739 146.258804,69.658966 146.463074,69.652832 
	C148.017197,70.497200 149.367065,71.347687 150.856079,72.518120 
z"/>
<path fill="#041C2B" opacity="1.000000" stroke="none" 
	d="
M127.953995,70.259201 
	C128.392105,70.191566 128.792130,70.373070 129.192169,70.554581 
	C128.905838,70.869850 128.619522,71.185120 128.146515,71.255447 
	C127.945198,70.843124 127.930565,70.675735 127.953995,70.259201 
z"/>
<path fill="#041C2B" opacity="1.000000" stroke="none" 
	d="
M127.756577,71.009323 
	C127.908211,71.359444 127.782425,71.774681 127.300766,72.110847 
	C127.122986,71.712662 127.301071,71.393555 127.756577,71.009323 
z"/>
<path fill="#0989C5" opacity="1.000000" stroke="none" 
	d="
M152.108353,83.977760 
	C151.138077,86.745956 150.167801,89.514160 149.124390,92.629028 
	C147.191376,92.947350 145.331528,92.919006 143.004150,92.863281 
	C144.581268,90.094360 146.625916,87.352837 149.240540,84.307892 
	C150.576477,83.995575 151.342407,83.986664 152.108353,83.977760 
z"/>
<path fill="#369AC9" opacity="1.000000" stroke="none" 
	d="
M131.245880,98.310844 
	C133.975006,98.022530 137.030853,97.992874 140.543396,97.955246 
	C141.000092,97.947273 141.063568,98.089363 141.105377,98.154099 
	C137.955643,98.335732 134.764114,98.452621 131.245880,98.310844 
z"/>
<path fill="#0989C5" opacity="1.000000" stroke="none" 
	d="
M145.676117,97.413605 
	C145.367859,97.244354 145.207947,97.038025 145.048019,96.831696 
	C145.309036,96.758759 145.570053,96.685829 145.831070,96.612900 
	C145.828873,96.867447 145.826675,97.121986 145.676117,97.413605 
z"/>
<path fill="#0772B5" opacity="1.000000" stroke="none" 
	d="
M152.227066,83.550980 
	C151.342407,83.986664 150.576477,83.995575 149.427551,84.009918 
	C148.442627,81.559578 147.840698,79.103798 147.003601,76.029541 
	C146.412704,74.945122 146.056976,74.479179 145.701233,74.013245 
	C145.701233,74.013245 145.980011,73.992531 145.761353,73.939682 
	C145.029022,73.589149 144.515366,73.291466 144.001694,72.993782 
	C143.688919,72.988472 143.413193,72.884705 142.759674,72.285309 
	C141.685791,71.616844 141.026764,71.345551 140.367737,71.074265 
	C140.367737,71.074265 140.440079,71.221581 140.068481,71.073425 
	C138.448975,70.975037 137.201065,71.024796 135.953156,71.074554 
	C135.205887,71.424782 134.458633,71.775002 133.397797,72.133492 
	C133.030777,71.551804 132.977325,70.961845 132.886658,69.928955 
	C136.950745,69.560539 141.052094,69.635056 145.556000,69.821152 
	C146.809647,70.835243 147.660736,71.737747 148.765732,72.831245 
	C149.647202,74.132751 150.274734,75.243271 151.038315,76.829216 
	C151.285782,77.511147 151.411163,77.708794 151.550507,77.897583 
	C151.815598,79.639786 152.080688,81.381989 152.227066,83.550980 
z"/>
<path fill="#0F74B3" opacity="1.000000" stroke="none" 
	d="
M136.376892,71.153549 
	C137.201065,71.024796 138.448975,70.975037 139.994843,71.109634 
	C139.128738,71.273514 137.964691,71.253021 136.376892,71.153549 
z"/>
<path fill="#0F74B3" opacity="1.000000" stroke="none" 
	d="
M145.754395,74.314857 
	C146.056976,74.479179 146.412704,74.945122 146.892319,75.676399 
	C146.613312,75.499977 146.210419,75.058228 145.754395,74.314857 
z"/>
<path fill="#0F74B3" opacity="1.000000" stroke="none" 
	d="
M144.178864,73.246338 
	C144.515366,73.291466 145.029022,73.589149 145.771698,74.079071 
	C145.452469,74.013840 144.904266,73.756371 144.178864,73.246338 
z"/>
<path fill="#0F74B3" opacity="1.000000" stroke="none" 
	d="
M140.591705,71.369476 
	C141.026764,71.345551 141.685791,71.616844 142.633057,72.099968 
	C142.219421,72.096107 141.517548,71.880402 140.591705,71.369476 
z"/>
<path fill="#0F74B3" opacity="1.000000" stroke="none" 
	d="
M151.535019,77.711899 
	C151.411163,77.708794 151.285782,77.511147 151.096634,77.147736 
	C151.249039,77.110130 151.415909,77.288589 151.535019,77.711899 
z"/>
</svg>